<?xml version="1.0" encoding="utf-8"?>
<!-- Generator: Adobe Illustrator 24.0.2, SVG Export Plug-In . SVG Version: 6.00 Build 0)  -->
<svg version="1.1" id="Layer_1" xmlns="http://www.w3.org/2000/svg" xmlns:xlink="http://www.w3.org/1999/xlink" x="0px" y="0px"
	 viewBox="0 0 2151.4 462.2" style="enable-background:new 0 0 2151.4 462.2;" xml:space="preserve">
<style type="text/css">
	.st0{fill:#FFF;}
	.st1{fill:#FBD000;}
	.st2{fill:#00549F;}
	.st3{fill:#D21A3A;}
</style>
<g>
	<g>
		<path class="st0" d="M350.1,164.9L323,175.2l-2.6,7.3l-6.1,3.9c-1.7-22.5-2.8-31.4-3.3-31.4l9.8-0.1l18-22l-26.2,11.3l-2.4,7.7
			l-25.7,19.5c0.6,4.8,2,19.5,1,33.8l5.7-3.8c2.5,107.2-46.6,147.5-46.6,147.5c-12.4-5.7-15.6-9.9-15.6-9.9
			c44.7-49.8,42.7-121.8,42.6-124.4l-4.7,3.1c0,0,1.9-22.8,0.7-33.6l-8.2,6.3c-0.2-7.4-0.6-13.5-1.1-17.8c5,0.3,10.1-0.4,14.3-3.5
			c4.5-3.2,6.8-12.8,7.5-16.8c0.7-4.1-0.1-5.4-2.6-7.1c-2.5-1.6-7.7-6.3-9.8-8.4c0,0,4.3-1.8,14.2,2.9c10.8,5.1,18.9,2.6,28.1-11
			l-11,1.6l1-7.6c0.2,0.1,0.4,0.2,0.6,0.3c1.5,1.1,6.7,3,9.2,3.5c2.5,0.5,2.4,0.1,4,1.1c1.6,0.9,2.9,1.3,3.7,0.9c0,0,6.1,3.5,8.6,0
			c0,0,2.4,1.4,3.6,1.9c1.9,0.7,4.8,1.7,5.8,1.6c1-0.2,3.3,0.8,3.7,1c3.9,1.9,6.3,0.9,6.8,0c0.6-0.9-2.4-4-4.7-5.9
			c-2.3-1.9-4.3-2.3-4.3-2.3c0.8-0.5,0.6-1.3-0.9-3c-1.5-1.8-6.4-4.2-6.4-4.2c0.1-1.4-5.5-4.9-8.8-7.4c-3.4-2.5-2-2.4-5.5-6.1
			c-3.5-3.7-19.7-16.5-27.7-22.2c-8-5.7-30.1-22.6-49-28.6c-18.9-6.1-30-4.7-38,0.3c-8,4.9-6,11.6-4.6,15.7
			c1.4,4.1,4.1,9.2,5.8,12.4c1.6,3.2,0.3,3.1-0.4,3.6c-0.7,0.5,0,1.7-0.7,1.6c-0.7-0.1-1.2,0.8-2.1,1.9c-0.5,0.5-1.8,1-3.6,1.3
			c-0.4-1.5,0.6-2.6,0.6-2.6c-1.3-0.7-3.4-1-3.4-1c0.3-0.5,1.2-0.9,1.2-0.9c-1.4-0.3-4,0.1-4,0.1c0.4-0.7,0.8-0.8,0.8-0.8
			c-2.4-0.8-4.6,1.2-5.5,2.1c-1.1-1.9-2.5-3.3-3.8-4.6c-1.5-1.4-2.2-3.3-3.8-4.9c0,0,1.3-2,0.4-3.9c-0.9-1.9-3.4-3.5-4.9-3.9
			c0,0,1.3-0.7,1.1-2.2c-0.2-1.5-1.6-2-3.1-1.6c-1.5,0.4-3.2,0.4-4.4,1.5c0,0-1.2,0.1-2.2,0c1.2-4.1,1.8-9.6-5.1-13.9
			c-8-4.9-19.1-6.3-38-0.3c-18.9,6.1-41,22.9-49,28.6c-8,5.7-24.2,18.6-27.7,22.2c-3.6,3.6-2.2,3.5-5.5,6.1c-3.4,2.5-8.9,6-8.9,7.4
			c0,0-4.9,2.4-6.4,4.2c-1.5,1.8-1.7,2.5-0.9,3c0,0-2,0.4-4.3,2.3c-2.3,1.9-5.3,5-4.7,5.9c0.6,0.9,2.9,1.9,6.8,0
			c0.4-0.2,2.7-1.2,3.7-1c1,0.2,4-0.9,5.8-1.6c1.2-0.4,3.6-1.9,3.6-1.9c2.5,3.5,8.6,0,8.6,0c0.8,0.4,2.2,0,3.7-0.9
			c1.6-0.9,1.5-0.6,3.9-1.1c2.5-0.5,7.7-2.4,9.2-3.5c0.2-0.2,0.4-0.3,0.6-0.3l1,7.6l-11-1.6c9.1,13.6,17.3,16.1,28.1,11
			c10-4.7,14.2-2.9,14.2-2.9c-2.1,2.1-7.3,6.8-9.8,8.4c-2.5,1.6-3.3,3-2.6,7.1c0.7,4.1,3.1,13.6,7.6,16.8c4.2,3,9.4,3.8,14.3,3.5
			c-0.5,4.3-0.9,10.4-1.1,17.8l-8.3-6.3c-1.3,10.8,0.7,33.6,0.7,33.6l-4.7-3.1c-0.1,2.6-2.1,74.6,42.6,124.4c0,0-3.2,4.2-15.6,9.9
			c0,0-49-40.3-46.5-147.5l5.7,3.8c-1-14.4,0.5-29.1,1-33.9l-25.6-19.5l-2.4-7.7L21,132.9l18.1,22l9.8,0.1c-0.5,0-1.6,8.9-3.3,31.4
			l-6.1-3.9l-2.6-7.3L9.7,165l19.2,21.4l9.5-0.6c0,0-9.8,94.9,22.5,146c26.8,42.5,65.9,42.8,101.4,19c-1.3,4.1-5.5,16.5-17.6,39
			c0,0,6.9,0,14.4,1.3c0,0-1.5,6.2-2.3,8c-0.8,1.9-0.6,5,3,5.2c3.7,0.1,8.4,0.6,8.4,0.6s-0.6,4.5-0.8,6.8c-0.1,3.2-0.4,4.5,12.3,5.1
			c13.4-0.5,12.5-1.9,12.4-5.1c-0.1-2.4-0.7-6.8-0.7-6.8s4.8-0.5,8.4-0.6c3.6-0.2,3.8-3.3,3-5.2c-0.8-1.9-2.3-8-2.3-8
			c7.4-1.3,14.4-1.3,14.4-1.3c-12-22.6-16.3-34.9-17.6-39c35.6,23.9,74.6,23.6,101.5-19c32.2-51.1,22.5-146,22.5-146l9.5,0.6
			L350.1,164.9z M195,128.2c1.1-4.8,1.9-8.8,2.9-8.1c1,0.7,2.7,0.8,3.3-0.1c0.6-0.8,0.8-0.9,1.3-0.1c0.5,0.9,3.5,2.3,5.5-1.1
			c2-3.4,1.4-1.7,2-0.4c0.6,1.3,2.1,1.9,3.8,0.5c1.7-1.4,3.1-2.6,4.3-3.2c1.2-0.6,1.3-0.3,2-1.5c0.7-1.3,1.8-1.8,1.9-2.6
			c0.1-0.8-0.7-1.7,0.5-2.4c1.2-0.6,1.7-1.1,2.8-0.6s1.4-0.5,1.9,0.2c0.5,0.7,1.3,0.8,2,0c0.7-0.7,1.2-1.9,2-0.6
			c0.8,1.4,2.6,1.7,3,1c0.4-0.7,0.7-0.7,1.2,0.3c0.5,1.1,2.3,1.9,4.2,1.6c0,0,1.8,2.5,4,2.1c2.2-0.4,3-1.5,3.1-2.9
			c0.1-1.5-0.7-6.5,0.7-5.4c1.5,1.1,1.4,0.6,1.9-0.3c0.4-0.8,1.1,0.1,1.9-0.1c0.7-0.2,0.6-1.1,1.9,0.1c1.3,1.3,1.4,1.9,2.5,2.2
			c1.2,0.3,1.7,0.6,2.9,1.9c1.3,1.3,2.6,2.7,4.8,1.9c0,0,1.4,1.9,2.9,1.7c0,0,3,3.3,4.8,2.8c0,0,3,1.2,4,1.1c1-0.1,1.2-0.8,1.8-0.4
			c0.6,0.4,0.4-1.2,1.3-0.1c0.9,1.1,2.6,2.9,3.6,2.6c0,0,2.5,2.1,4.4,2.3c1.9,0.3,2.5,0.8,3.1,0.8s0.3-0.6,1.4,0.3
			c1.1,0.9,2.7,1.3,3.8,0.9c1-0.4,1.5-0.4,2.4-0.3c0.3,0,0.7,0,1.1,0c-3.1,3.7-7.2,6.6-14.7,4.3c-10-3.1-13-1.6-15.1,0.5
			c-2.1,2.1-6.7,8.2-7.9,12c-1.2,3.8-0.6,6.8,6.8,15.5c0,0-9.6,0.6-22.4-3.5c-12.8-4.1-24.5-5.6-36.4-0.2c-2.1,0.9-4,1.8-5.8,2.7
			c-1.3-1.3-4.6-4.7-5.8-6.3c0,0,0.8-3.9,0.7-6.3c-0.1-2.6-0.2-3.8-1.1-5.1C195.1,134.7,194,133,195,128.2z M246,170.1
			c-5.6,3.6-15.2,7.7-29.3,7.7c-11,0-19.5-2.5-25.6-5.4c2.5-1.5,12.2-7.1,24.5-7.4c14.2-0.4,20.4,1.6,27.2,4
			C243.7,169.4,244.8,169.7,246,170.1z M187.3,149.9c0.1,0,0.1,0.1,0.2,0.1c2.5,1,5.1,0.6,5.1,0.6c0.8,0.5,4.3,3.8,5.6,5.1
			c-3.6,1.9-6.8,4-9.9,6.6c-0.8-3.1-1.9-8.1-1.5-9.8C187.1,151.6,187.2,150.7,187.3,149.9z M169.7,82.2c1.4,0.9,4.1,2.5,5,4.8
			c0.3,0.7,0.5,1.3,0.6,2c-2-0.5-3.5-0.5-4.6-0.3c-2-3.3-4.3-5.4-6.3-6.8C166.6,81.6,168.5,81.4,169.7,82.2z M157.8,81.3
			c0-0.1,0.1-0.1,0.1-0.2c1.7,2.5,5.4,6.9,11.3,8.1c-0.6,0.3-1.1,0.7-1.4,1c-3.2-0.4-6-1-6.7-1.9c-0.9-1.1-1.4-2-2.1-1.9
			c-0.7,0.1,0.1-1.1-0.7-1.6C157.5,84.4,156.2,84.5,157.8,81.3z M155.4,121c0.3,1.7,0.7,3.5,1.6,5.3c-0.2,0.4-0.5,0.8-0.7,1.3
			c-0.5-3.8-2.1-6.3-2.4-6.8C154.4,121,154.9,121,155.4,121z M93,154.7c7.4-8.7,8-11.6,6.8-15.5c-1.2-3.8-5.8-9.9-7.9-12
			c-2.1-2.1-5.1-3.6-15.1-0.5c-7.6,2.3-11.6-0.6-14.7-4.3c0.4,0,0.8,0.1,1.1,0c0.9-0.1,1.4-0.2,2.4,0.3c1,0.4,2.7,0,3.8-0.9
			c1.1-0.9,0.8-0.3,1.4-0.3c0.6,0,1.2-0.6,3.1-0.8c1.9-0.2,4.4-2.3,4.4-2.3c1.1,0.3,2.7-1.6,3.7-2.6c0.9-1.1,0.7,0.5,1.3,0.1
			c0.6-0.3,0.8,0.3,1.8,0.4c1,0.1,4-1.1,4-1.1c1.7,0.5,4.8-2.8,4.8-2.8c1.5,0.1,2.9-1.7,2.9-1.7c2.2,0.8,3.6-0.6,4.8-1.9
			c1.2-1.3,1.7-1.6,2.9-1.9c1.2-0.3,1.3-0.9,2.5-2.2c1.3-1.2,1.1-0.3,1.9-0.1c0.7,0.2,1.4-0.7,1.9,0.1c0.5,0.9,0.4,1.4,1.9,0.3
			c1.5-1.1,0.7,3.9,0.7,5.4c0.1,1.5,0.9,2.6,3.1,2.9c2.2,0.4,4-2.1,4-2.1c1.9,0.3,3.7-0.5,4.2-1.6c0.5-1.1,0.8-1,1.2-0.3
			c0.4,0.7,2.2,0.4,3-1c0.8-1.4,1.3-0.2,2,0.6c0.7,0.8,1.4,0.7,2,0c0.5-0.7,0.9,0.3,1.9-0.2c1-0.5,1.6-0.1,2.8,0.6
			c1.2,0.6,0.4,1.5,0.4,2.4c0.1,0.8,1.2,1.4,1.9,2.6c0.7,1.2,0.8,0.9,2,1.5c1.2,0.6,2.6,1.8,4.3,3.2c1.6,1.2,3,0.4,3.7-0.6
			c0.3,1.1,0.6,2.9,1.1,2.9l0,0c0.5,0,1-1.4,1.4-2.3c0.5,0.8,1.2,0.6,1.8,0.8c-0.3,0.6-4.6,9.3,0.7,17.1h0c0.3,0,0.5-0.3,0.6-0.8
			c0.5,5.1,0.3,6.2,0.3,6.2s-2.4,3-4.1,8.4c-11.7-5.1-23.3-3.5-35.9,0.5C102.6,155.2,93,154.7,93,154.7z M147.2,165.3
			c-1.5,4.4-3.4,8.9-6,12.5c-13.1-0.4-22-4.3-27.4-7.7c1.2-0.4,2.3-0.7,3.2-1.1c6.8-2.4,13-4.3,27.2-4
			C145.2,165.1,146.2,165.2,147.2,165.3z M105.1,171.8c1.1-0.2,2.3-0.3,3.6-0.6c3.7,3.7,13.9,11.9,33.3,11.9
			c25.1,0,37.9-12.1,37.9-12.1s12.8,12.1,37.9,12.1c19.4,0,29.6-8.1,33.3-11.8c1.3,0.3,2.5,0.2,3.6,0.4c3,25.2-2,61-2,61h-72.8
			h-72.8C107.1,232.8,102,197,105.1,171.8z M107.1,237.2h72.8h72.8c0,0-2.2,27.8-14.1,51.2h-58.6h-58.7
			C109.3,265,107.1,237.2,107.1,237.2z M179.8,356.3c-43.6-31.6-56.4-63.9-56.4-63.9h56.4h56.4C236.3,292.5,223.5,324.8,179.8,356.3
			z"/>
		<path class="st0" d="M207.1,229.4c2.5-0.1,4.9-1,6.8-2.5c1,0.4,2.1,0.5,3.2,0.5c3.9,0,7.3-2.6,9.2-6.4c1.8,0.2,3.6,0,5.2-0.9
			c3.6-1.9,5.2-6.2,4.4-10.6c0.2-0.1,0.4-0.3,0.6-0.4c3.2-2.7,3.2-8.1-0.1-12.1c-0.1-0.1-0.2-0.2-0.3-0.3c1.1-0.8,1.9-2,1.9-3.4
			c0-2.5-3-4.4-5.7-4.4c-2.7,0-5.7,2-5.7,4.4v0c0,0.1-1.7,0.6-2.7,1.5c-1.4,1.1-1.8,2.8-2,4.6c-0.5,0.2-0.8,0.3-1.3,0.6
			c-0.7,0.3-1.1,0.8-1.7,1.3c-0.8-0.2-1.5-0.3-2.4-0.3c-1.2,0-2.3,0.3-3.4,0.7c-2-1.3-4.2-2.1-6.7-2c-7.1,0.1-12.7,6.9-12.5,15
			C194.2,223.1,200.1,229.6,207.1,229.4z"/>
		<path class="st0" d="M123.7,209.2c0.2,0.1,0.4,0.3,0.6,0.4c-0.8,4.4,0.9,8.7,4.4,10.6c1.6,0.9,3.4,1.1,5.2,0.9
			c1.9,3.8,5.3,6.3,9.2,6.4c1.1,0,2.2-0.1,3.2-0.5c2,1.5,4.3,2.4,6.8,2.5c7.1,0.1,12.9-6.4,13.1-14.5c0.1-8.2-5.5-14.9-12.5-15
			c-2.4-0.1-4.7,0.7-6.7,2c-1-0.4-2.2-0.7-3.4-0.7c-0.8,0-1.6,0.1-2.4,0.3c-0.5-0.5-1.1-1-1.8-1.3c-0.5-0.3-1-0.4-1.5-0.6
			c-0.2-1.8-0.4-3.5-1.8-4.6c-1-0.9-2.9-1.3-2.9-1.5v0c0-2.5-2.8-4.4-5.5-4.4c-2.7,0-5.2,2-5.2,4.4c0,1.4,0.6,2.6,1.7,3.4
			c-0.1,0.1-0.2,0.2-0.4,0.3C120.6,201.1,120.5,206.5,123.7,209.2z"/>
		<path class="st0" d="M180.3,285.2l6-9.1l-1.1-4.3l4.8,0.6c0.3,2,1.6,4.3,3.5,4.5c1.9,0.3,5.1,0,5.1,0l1.8-2.1
			c-2.2-2.1-5-3.9-5-3.9c-0.6-12.6-2.9-21.2-4.5-25.8c-1.6-4.5-3.7-4.7-7.7-4.1c-4,0.5-14.9,7.1-14.9,7.1l-0.8,6.3l3.7,0.4
			c0,0-2.1,7.1-2.9,9.7c-0.7,2.6-0.1,2.4,1.3,3.4c1.4,0.9,6.6,2.2,6.6,2.2l-1.5,6.6L180.3,285.2z"/>
		<path class="st0" d="M166.1,204.9c2.2,12.5,10.2,13.7,13.4,13.6c0,4.4-0.8,7.9-0.8,7.9l4,2.7c0.4-5.3,0.3-9.4,0-12.8
			c9.5-1.4,11.5-15.6,11.5-15.6c-9.3,4.2-11.3,10.9-11.7,14c-0.7-5.1-1.9-7.8-2.5-9c6-0.7,10.7-5.8,10.7-12c0-3.5-1.5-6.6-3.9-8.8
			l2-3.7l-4.2,0.8l-1.7-3.2l-3.1,2.5l-1.9-2.5l-2,2.9l-3.7-2.1l1,3.4c-4,2-6.7,6.1-6.7,10.8c0,6,4.4,10.9,10.1,11.9
			c1.9,2.9,2.6,6.7,2.8,10.2C174.3,207.6,166.1,204.9,166.1,204.9z M179.2,205.6c-2.9,0-5.3-5.2-5.3-11.6c0-6.4,2.4-11.6,5.3-11.6
			s5.3,5.2,5.3,11.6C184.5,200.4,182.1,205.6,179.2,205.6z"/>
		<path class="st0" d="M189.7,308c-1.1-2.6-1.1-5.1,0-7.8h-14.5c-1.1,2.6-1.1,5.2,0,7.8H189.7z"/>
		<path class="st0" d="M175.2,326.2c-1.1,2.6-1.1,7.8,0,10.4h14.5c-1.1-2.6-1.1-7.8,0-10.4H175.2z"/>
		<polygon class="st0" points="193.2,315.8 196.4,310.6 174.2,310.6 171.8,308 170.8,308 162.5,308 163.7,310.6 165.9,310.6 
			168.3,315.8 		"/>
		<polygon class="st0" points="193,339.2 192.2,339.2 188.5,339.2 185.4,339.2 181.7,339.2 179.3,339.2 175.4,339.2 174.2,339.2 
			172.9,336.6 168,336.6 169.5,339.6 173.5,341.8 192.6,341.8 196.5,339.5 197,336.6 193.9,336.6 		"/>
	</g>
	<g>
		<g>
			<path class="st0" d="M784.7,154.3c-21-20.5-52-31.4-79.2-31.4c-68.7,0-108.6,51.6-108.1,113.6c0,53.6,31.9,105.6,108.1,105.6
				c25.2,0,48.2-6.3,71.7-26v-59.5h-81.7v-41.9h125.3v120.3C791.4,367.2,755,386,705.5,386c-107.7,0-154.3-71.7-154.3-149.6
				c0-84.7,54.1-156.8,154.3-156.8c39,0,78.4,14.7,108.6,44.4L784.7,154.3z"/>
			<path class="st0" d="M1159.1,233.7c0,79.5-48.4,152.4-150.7,152.4s-150.7-74.5-150.7-151.9c0-89.6,62.7-154.5,151.5-154.5
				C1109.9,80.1,1159.1,154.1,1159.1,233.7z M1008.5,342.7c73.2,0,104-51.8,104-108.2c0-54.3-31.2-110.7-103.1-111.9
				c-68.2,0-104.8,47.6-104.8,111.9C905.3,286.7,935.6,342.7,1008.5,342.7z"/>
			<path class="st0" d="M1343.6,386h-50.8L1166.3,80.6h54.8l96.9,247.2l97.3-247.2h54.3L1343.6,386z"/>
			<path class="st0" d="M1501.4,355.2c0,41.1-61.4,41.1-61.4,0C1440,314.6,1501.4,314.6,1501.4,355.2z"/>
			<path class="st0" d="M1798.9,342.1c-30.4,30-69.6,43.9-111,43.9c-107.2,0-155.3-73.9-155.7-151.5s50.2-154.9,155.7-154.9
				c39.7,0,78.1,14.8,108,44.7l-31.7,30.4c-21.1-20.7-49-30.4-76.4-30.4c-75.1,0-109.3,55.3-108.9,109.7
				c0.4,54,32.5,107.6,108.9,107.6c27.4,0,57.8-11.4,78.5-32.1L1798.9,342.1z"/>
			<path class="st0" d="M2139,234.1c0,79.3-48.3,151.9-150.2,151.9s-150.2-74.3-150.2-151.5c0-89.4,62.5-154,151.1-154
				C2089.9,81,2139,154.8,2139,234.1z M1988.8,342.8c73,0,103.6-51.6,103.6-107.8c0-54.1-31.1-110.4-102.8-111.6
				c-68,0-104.5,47.4-104.5,111.6C1886,287,1916.2,342.8,1988.8,342.8z"/>
		</g>
	</g>
	<g>
		<rect x="428.7" y="18.4" class="st1" width="33" height="183.8"/>
		<rect x="428.7" y="202.2" class="st2" width="33" height="122.6"/>
		<rect x="428.7" y="324.8" class="st3" width="33" height="122.6"/>
	</g>
</g>
</svg>
